<svg width="140" height="20" viewBox="0 0 140 20" fill="none" xmlns="http://www.w3.org/2000/svg">
<path fill-rule="evenodd" clip-rule="evenodd" d="M13.544 19.284L20.726 0.967008H20.727C20.837 0.688008 20.685 0.462008 20.392 0.462008H18.102C17.809 0.462008 17.48 0.689008 17.372 0.969008L12.246 14.32C12.139 14.601 12.04 14.582 12.026 14.285L11.516 3.48501L12.622 0.959008C12.744 0.683008 12.6 0.461008 12.306 0.461008H10.08C9.78602 0.461008 9.44902 0.683008 9.32902 0.960008L3.62601 14.332C3.50801 14.606 3.41201 14.584 3.41102 14.286L3.38301 1.00701C3.38201 0.709008 3.14101 0.463008 2.84701 0.463008H0.530015C0.459509 0.463395 0.389781 0.477766 0.324869 0.50529C0.259957 0.532814 0.20115 0.572944 0.151856 0.623354C0.102561 0.673765 0.0637585 0.733455 0.0376945 0.798967C0.0116305 0.864479 -0.00117661 0.934511 1.49898e-05 1.00501L0.262015 19.245C0.263818 19.3889 0.321649 19.5264 0.423225 19.6284C0.524801 19.7303 0.662119 19.7887 0.806015 19.791H3.83102C4.12702 19.791 4.46602 19.566 4.58602 19.293L8.65302 10.013L9.21502 19.246C9.224 19.3914 9.28727 19.5281 9.39229 19.629C9.4973 19.73 9.63639 19.7878 9.78201 19.791H12.81C13.104 19.791 13.434 19.562 13.544 19.284ZM33.636 19.286L37.106 0.995008H37.105C37.162 0.701008 36.966 0.458008 36.67 0.458008H34.471C34.3205 0.464706 34.1764 0.521004 34.0612 0.618132C33.9459 0.71526 33.8661 0.847765 33.834 0.995008L32.413 8.50301H26.773C26.479 8.50301 26.283 8.26201 26.339 7.96701L27.661 0.995008C27.717 0.701008 27.521 0.458008 27.227 0.458008H25.028C24.8771 0.464376 24.7326 0.52066 24.6171 0.618029C24.5016 0.715398 24.4218 0.848343 24.39 0.996008L20.947 19.286C20.894 19.58 21.088 19.823 21.384 19.823H23.551C23.702 19.8166 23.8466 19.7605 23.9624 19.6634C24.0781 19.5662 24.1585 19.4336 24.191 19.286L25.531 12.215C25.5634 12.0674 25.6437 11.9346 25.7595 11.8374C25.8753 11.7403 26.02 11.6842 26.171 11.678H31.271C31.566 11.678 31.761 11.92 31.706 12.216L30.365 19.286C30.309 19.58 30.505 19.823 30.799 19.823H32.999C33.1497 19.8166 33.2939 19.7605 33.4092 19.6633C33.5245 19.5661 33.6043 19.4334 33.636 19.286ZM52.571 3.09501L52.958 0.995008C53.014 0.701008 52.817 0.458008 52.521 0.458008H42.482C42.3311 0.464376 42.1866 0.52066 42.0711 0.618029C41.9557 0.715398 41.8758 0.848343 41.844 0.996008L38.374 19.286C38.318 19.58 38.513 19.823 38.808 19.823H48.848C48.9986 19.8169 49.1429 19.7608 49.2581 19.6636C49.3733 19.5663 49.4528 19.4335 49.484 19.286L49.871 17.182C49.927 16.89 49.731 16.646 49.434 16.646H42.682C42.388 16.646 42.192 16.404 42.248 16.109L42.988 12.215C43.0194 12.0675 43.0991 11.9346 43.2145 11.8373C43.3298 11.7401 43.4743 11.684 43.625 11.678H50.114C50.265 11.6712 50.4095 11.6149 50.5253 11.5179C50.6411 11.4208 50.7218 11.2884 50.755 11.141L51.165 9.04101C51.221 8.74301 51.026 8.50301 50.731 8.50301H44.228C43.933 8.50301 43.737 8.26201 43.793 7.96701L44.513 4.16901C44.5447 4.02137 44.6245 3.88846 44.74 3.79123C44.8556 3.694 45.0001 3.63798 45.151 3.63201H51.936C52.0865 3.62589 52.2307 3.56976 52.3457 3.4725C52.4607 3.37524 52.54 3.2424 52.571 3.09501ZM68.46 3.09501L68.847 0.995008C68.902 0.701008 68.706 0.458008 68.41 0.458008H58.371C58.2199 0.46445 58.0752 0.520719 57.9594 0.61804C57.8436 0.71536 57.7633 0.848259 57.731 0.996008L54.261 19.286C54.205 19.58 54.402 19.823 54.697 19.823H64.737C64.8876 19.8168 65.0318 19.7606 65.1469 19.6634C65.2621 19.5662 65.3416 19.4334 65.373 19.286L65.761 17.182C65.816 16.89 65.618 16.646 65.324 16.646H58.571C58.277 16.646 58.081 16.404 58.137 16.109L58.874 12.215C58.9064 12.0674 58.9867 11.9346 59.1025 11.8374C59.2183 11.7403 59.363 11.6842 59.514 11.678H66.002C66.1531 11.672 66.2979 11.616 66.4137 11.5188C66.5295 11.4216 66.6098 11.2887 66.642 11.141L67.051 9.04101C67.11 8.74301 66.915 8.50301 66.62 8.50301H60.115C59.822 8.50301 59.625 8.26201 59.682 7.96701L60.403 4.16901C60.4348 4.02145 60.5147 3.88863 60.6302 3.79143C60.7457 3.69423 60.8902 3.63815 61.041 3.63201H67.825C67.9755 3.62572 68.1195 3.56953 68.2345 3.4723C68.3495 3.37507 68.4288 3.24232 68.46 3.09501ZM70.098 19.3668V19.4002C70.106 19.6409 70.2865 19.824 70.542 19.824H80.582C80.7328 19.8175 80.8771 19.761 80.9923 19.6634C81.1074 19.5658 81.1868 19.4327 81.218 19.285L81.606 17.183V17.184C81.6099 17.163 81.6126 17.1423 81.614 17.1219V17.0532C81.5978 16.8221 81.4178 16.646 81.169 16.646H73.879L76.849 0.995984C76.9047 0.702658 76.7122 0.460743 76.419 0.458008H74.2145C74.0641 0.46493 73.9201 0.521233 73.8049 0.618213C73.6895 0.715303 73.6094 0.847739 73.577 0.994984L70.107 19.285C70.1018 19.3127 70.0989 19.3401 70.098 19.3668ZM96.836 5.31001H98.611C99.117 5.31001 99.457 5.06501 99.474 4.61501C99.566 2.27501 97.747 0.471008 95.354 0.471008H92.484C89.861 0.471008 87.514 2.64001 86.991 5.31001L86.928 5.62301C86.589 7.38401 86.99 8.64501 88.38 9.46201C89.5623 10.1623 90.4484 10.6134 91.3357 11.0651C92.2172 11.5139 93.0998 11.9633 94.275 12.658C94.739 12.943 94.831 13.478 94.707 14.078C94.6667 14.2667 94.6379 14.4042 94.6083 14.5459L94.6069 14.5524C94.5819 14.6722 94.5561 14.7957 94.522 14.956C94.369 15.836 93.286 16.656 92.422 16.656H89.367C88.741 16.656 88.391 16.226 88.304 15.653C88.238 15.216 88.042 14.956 87.492 14.956H85.742C85.269 14.956 84.991 15.155 84.976 15.653C84.975 15.6838 84.9743 15.7146 84.974 15.7452V15.8435C84.9993 18.0984 86.7631 19.833 89.09 19.833H92.3C94.922 19.833 97.238 17.787 97.732 15.145L97.948 14.078C98.288 12.315 97.916 11.023 96.528 10.201C95.3569 9.51989 94.4749 9.07785 93.5965 8.63763C92.6966 8.18658 91.8004 7.73744 90.601 7.03501C90.169 6.78601 90.106 6.18901 90.2 5.62301C90.2091 5.57494 90.2167 5.53648 90.2238 5.50025L90.2239 5.49971C90.2354 5.44116 90.2458 5.38833 90.26 5.31001C90.446 4.43001 91.619 3.64301 92.484 3.64301H95.171C95.796 3.64301 96.096 4.05301 96.146 4.61501C96.184 5.05001 96.331 5.31001 96.836 5.31001ZM120.131 15.103L122.823 1.01701C122.88 0.720008 122.684 0.478008 122.39 0.478008H120.189C119.895 0.478008 119.609 0.720008 119.551 1.01601L116.556 16.646H111.579C110.715 16.646 110.529 15.891 110.684 15.042L113.377 1.01701C113.434 0.720008 113.238 0.478008 112.944 0.478008H110.744C110.593 0.484307 110.448 0.54071 110.333 0.638314C110.218 0.735918 110.138 0.869161 110.107 1.01701L107.443 14.979C106.98 17.591 108.771 19.824 111.363 19.824H114.728C117.228 19.824 119.635 17.62 120.131 15.103ZM128.217 0.458008H135.52L135.519 0.459008C138.144 0.459008 139.966 2.65901 139.472 5.32901L139.162 6.83101C138.67 9.50101 136.323 11.671 133.698 11.671H128.79L127.38 19.285C127.348 19.4329 127.268 19.5661 127.152 19.6636C127.036 19.7611 126.891 19.8175 126.74 19.824H124.541C124.248 19.824 124.052 19.579 124.108 19.286L125.549 11.496L126.158 8.27901L127.578 0.996008C127.61 0.848183 127.69 0.715118 127.805 0.617731C127.921 0.520345 128.066 0.464159 128.217 0.458008ZM135.859 6.89401L136.232 5.26601H136.231C136.385 4.38601 136.045 3.63201 135.181 3.63201H130.902C130.751 3.63835 130.606 3.69444 130.49 3.79155C130.374 3.88866 130.294 4.02136 130.261 4.16901L129.493 7.96101C129.435 8.25601 129.63 8.49601 129.926 8.49601H133.761C134.625 8.49601 135.706 7.77401 135.859 6.89401Z" fill="#173FC2"/>
</svg>
