<?xml version="1.0" encoding="UTF-8"?>
<svg width="160px" height="23px" viewBox="0 0 160 23" version="1.1" xmlns="http://www.w3.org/2000/svg" xmlns:xlink="http://www.w3.org/1999/xlink">
    <!-- Generator: Sketch 44.1 (41455) - http://www.bohemiancoding.com/sketch -->
    <title>logo/blue</title>
    <desc>Created with Sketch.</desc>
    <defs>
        <polygon id="path-1" points="0.187206274 0.444705882 13.3498487 0.444705882 13.3498487 22.5779294 0.187206274 22.5779294 0.187206274 0.444705882"></polygon>
        <polygon id="path-3" points="16.610781 22.5882353 0.0342869403 22.5882353 0.0342869403 0.460658824 16.610781 0.460658824"></polygon>
    </defs>
    <g id="Symbols" stroke="none" stroke-width="1" fill="none" fill-rule="evenodd">
        <g id="navigation/02+1440px_01B" transform="translate(-64.000000, -60.000000)">
            <g id="Group-2">
                <g id="Group">
                    <g id="logo/white" transform="translate(64.000000, 60.000000)">
                        <g id="Group-16">
                            <g id="Group-3" transform="translate(0.000000, 0.078170)" fill="#FFFFFF">
                                <path d="M23.6873563,1.02734118 L15.4786056,21.9609882 C15.3537893,22.2786353 14.9765668,22.5398118 14.6395628,22.5398118 L11.1793782,22.5398118 C10.8437611,22.5398118 10.5497494,22.2588706 10.5317204,21.9172235 L9.88960995,11.3656941 L5.24089693,21.9708706 C5.10359902,22.2828706 4.71666855,22.5398118 4.37827775,22.5398118 L0.92086678,22.5398118 C0.58524967,22.5398118 0.305106463,22.2588706 0.299559073,21.9158118 L9.11496695e-14,1.07110588 C-0.00416054268,0.730870588 0.266274731,0.449929412 0.604665536,0.449929412 L3.25354438,0.449929412 C3.58916148,0.449929412 3.86514415,0.730870588 3.866531,1.07110588 L3.89842849,16.2475765 C3.89981534,16.5878118 4.0093763,16.6132235 4.14390051,16.2998118 L10.662084,1.02028235 C10.7993819,0.704047059 11.1835387,0.449929412 11.5205427,0.449929412 L14.0640211,0.449929412 C14.3996382,0.449929412 14.5646731,0.704047059 14.4246015,1.01887059 L13.1611833,3.90592941 L13.7436593,16.2489882 C13.7603015,16.5878118 13.8726361,16.6104 13.9960656,16.2885176 L19.8527228,1.02875294 C19.9761523,0.708282353 20.3519879,0.449929412 20.687605,0.449929412 L23.3031995,0.449929412 C23.6388167,0.449929412 23.8121726,0.708282353 23.6873563,1.02734118" id="Fill-1"></path>
                            </g>
                            <path d="M42.4071634,1.13727582 L38.4407793,22.0412758 C38.3783712,22.3772758 38.0496883,22.6553935 37.7126844,22.6553935 L35.1997166,22.6553935 C34.8627126,22.6553935 34.6380433,22.3772758 34.7032252,22.0412758 L36.2356917,13.9603346 C36.2980999,13.6229229 36.0748174,13.346217 35.7378135,13.346217 L29.9088932,13.346217 C29.5718892,13.346217 29.2418195,13.6229229 29.1780245,13.9603346 L27.6469448,22.0412758 C27.581763,22.3772758 27.2544669,22.6553935 26.9160761,22.6553935 L24.4391664,22.6553935 C24.1007756,22.6553935 23.87888,22.3772758 23.9399013,22.0412758 L27.8730009,1.13727582 C27.9354091,0.801275817 28.2654788,0.52315817 28.6024828,0.52315817 L31.1154505,0.52315817 C31.4510676,0.52315817 31.675737,0.801275817 31.611942,1.13727582 L30.1002781,9.10527582 C30.0364831,9.44268758 30.2597656,9.7179817 30.5967695,9.7179817 L37.0414502,9.7179817 L38.6682223,1.13727582 C38.7320173,0.801275817 39.0607002,0.52315817 39.3963173,0.52315817 L41.9092851,0.52315817 C42.2476759,0.52315817 42.4723452,0.801275817 42.4071634,1.13727582" id="Fill-4" fill="#FFFFFF"></path>
                            <path d="M60.523553,1.13727582 L60.0811487,3.53727582 C60.0187405,3.87468758 59.6928314,4.15139346 59.3558274,4.15139346 L51.6005758,4.15139346 C51.2649587,4.15139346 50.9362759,4.42668758 50.8724809,4.76409935 L50.0486934,9.10527582 C49.9848984,9.44268758 50.2081809,9.7179817 50.5465717,9.7179817 L57.9786878,9.7179817 C58.3156917,9.7179817 58.5389742,9.99186405 58.4737923,10.3320993 L58.0064247,12.7335111 C57.939856,13.0695111 57.6097863,13.346217 57.2727824,13.346217 L49.8573085,13.346217 C49.5189177,13.346217 49.1916216,13.6229229 49.1292135,13.9603346 L48.2832365,18.410217 C48.2194415,18.7476288 48.4427239,19.0243346 48.7797279,19.0243346 L56.4961477,19.0243346 C56.8359254,19.0243346 57.0592078,19.3024523 56.9954129,19.6370405 L56.5530085,22.0412758 C56.4919872,22.3772758 56.1646912,22.6553935 55.8263004,22.6553935 L44.3529105,22.6553935 C44.0145197,22.6553935 43.7926241,22.3772758 43.8564191,22.0412758 L47.8214162,1.13727582 C47.8852112,0.801275817 48.2125073,0.52315817 48.5508981,0.52315817 L50.6006588,0.52315817 L51.0638658,0.52315817 L60.0242879,0.52315817 C60.3626787,0.52315817 60.587348,0.801275817 60.523553,1.13727582" id="Fill-6" fill="#FFFFFF"></path>
                            <path d="M78.6825189,1.13727582 L78.2401146,3.53727582 C78.1777064,3.87468758 77.8504104,4.15139346 77.5147933,4.15139346 L69.7609286,4.15139346 C69.4239246,4.15139346 69.0952418,4.42668758 69.0314468,4.76409935 L68.2076593,9.10527582 C68.1424775,9.44268758 68.3671468,9.7179817 68.7027639,9.7179817 L76.1376537,9.7179817 C76.4746576,9.7179817 76.6979401,9.99186405 76.6299845,10.3320993 L76.1626169,12.7335111 C76.0988219,13.0695111 75.7701391,13.346217 75.4317483,13.346217 L68.0162744,13.346217 C67.6792704,13.346217 67.3492007,13.6229229 67.2854057,13.9603346 L66.4422024,18.410217 C66.3784074,18.7476288 66.6016898,19.0243346 66.9386938,19.0243346 L74.6565005,19.0243346 C74.9921176,19.0243346 75.2181737,19.3024523 75.1557656,19.6370405 L74.7119744,22.0412758 C74.6495662,22.3772758 74.3236571,22.6553935 73.9852663,22.6553935 L62.5118764,22.6553935 C62.1734856,22.6553935 61.9488163,22.3772758 62.0126113,22.0412758 L65.9789953,1.13727582 C66.0441771,0.801275817 66.3714731,0.52315817 66.709864,0.52315817 L68.6888954,0.52315817 L69.2228317,0.52315817 L78.1832538,0.52315817 C78.5216446,0.52315817 78.7449271,0.801275817 78.6825189,1.13727582" id="Fill-8" fill="#FFFFFF"></path>
                            <g id="Group-12" transform="translate(79.924628, 0.078170)">
                                <mask id="mask-2" fill="white">
                                    <use xlink:href="#path-1"></use>
                                </mask>
                                <g id="Clip-11"></g>
                                <path d="M13.3394837,19.5595765 L12.8956925,21.9624 C12.8318975,22.2998118 12.5059883,22.5779294 12.1689844,22.5779294 L0.69420765,22.5779294 C0.357203693,22.5779294 0.135308084,22.2998118 0.197716224,21.9624 L4.1627134,1.05981176 C4.22650839,0.7224 4.5565781,0.444282353 4.89358206,0.444282353 L7.40516299,0.444282353 C7.7435538,0.444282353 7.96683625,0.7224 7.90304127,1.05981176 L4.50803844,18.9454588 L12.8402186,18.9454588 C13.1758357,18.9454588 13.4018918,19.2264 13.3394837,19.5595765" id="Fill-10" fill="#FFFFFF" mask="url(#mask-2)"></path>
                            </g>
                            <g id="Group-15" transform="translate(97.079329, 0.078170)">
                                <mask id="mask-4" fill="white">
                                    <use xlink:href="#path-3"></use>
                                </mask>
                                <g id="Clip-14"></g>
                                <path d="M15.6208962,5.99054118 L13.5905513,5.99054118 C13.0136228,5.99054118 12.8458142,5.69407059 12.8014351,5.19712941 C12.7445743,4.55477647 12.402023,4.08607059 11.6877965,4.08607059 L8.61870285,4.08607059 C7.62988054,4.08607059 6.28879894,4.98536471 6.07661127,5.99054118 C6.05026116,6.13595294 6.03500584,6.20512941 6.00726889,6.34912941 C5.90048163,6.99571765 5.9725977,7.6776 6.46631543,7.96277647 C9.17482872,9.54818824 10.5297788,10.0041882 13.2396789,11.5811294 C14.8262325,12.5199529 15.2506079,13.9966588 14.8622906,16.0112471 C14.7638244,16.4968941 14.7152847,16.7411294 14.6154317,17.2310118 C14.0509847,20.2507765 11.4048796,22.5886588 8.40790202,22.5886588 L4.73830337,22.5886588 C2.00482683,22.5886588 -0.0490944036,20.4936 0.0368901451,17.8112471 C0.0535323158,17.2423059 0.371120407,17.0150118 0.911990955,17.0150118 L2.91182514,17.0150118 C3.54006708,17.0150118 3.76473639,17.3114824 3.83962615,17.8112471 C3.93947918,18.4663059 4.33889128,18.9576 5.05450462,18.9576 L8.54658677,18.9576 C9.53402223,18.9576 10.7710903,18.0201882 10.9472199,17.0150118 C11.0318176,16.6112471 11.0720362,16.4121882 11.1580207,16.0112471 C11.2994792,15.3265412 11.1940788,14.7138353 10.664303,14.3891294 C7.96965819,12.7952471 6.62025551,12.3321882 3.92699755,10.7354824 C2.33905709,9.80230588 1.88001055,8.36089412 2.26694102,6.34912941 C2.29606482,6.20512941 2.3099333,6.13595294 2.33905709,5.99054118 C2.93817524,2.93971765 5.61895157,0.460658824 8.61870285,0.460658824 L11.8985973,0.460658824 C14.6334607,0.460658824 16.7123452,2.52183529 16.6069448,5.19712941 C16.5875289,5.71101176 16.1992116,5.99054118 15.6208962,5.99054118" id="Fill-13" fill="#FFFFFF" mask="url(#mask-4)"></path>
                            </g>
                            <path d="M140.369498,1.1619817 L137.292084,17.2603346 C136.72625,20.1375111 133.974744,22.6560993 131.117838,22.6560993 L127.27211,22.6560993 C124.309804,22.6560993 122.262817,20.1036288 122.792592,17.1191582 L125.836723,1.1619817 C125.899131,0.82315817 126.227814,0.546452288 126.564818,0.546452288 L129.079172,0.546452288 C129.41479,0.546452288 129.638072,0.82315817 129.574277,1.1619817 L126.495475,17.1911582 C126.319346,18.1610405 126.531533,19.0236288 127.518969,19.0236288 L133.206431,19.0236288 L136.629171,1.1619817 C136.695739,0.82315817 137.023035,0.546452288 137.358652,0.546452288 L139.874394,0.546452288 C140.210011,0.546452288 140.433293,0.82315817 140.369498,1.1619817" id="Fill-16" fill="#FFFFFF"></path>
                            <path d="M154.879252,0.523722876 L146.533204,0.523722876 C146.1962,0.523722876 145.867517,0.800428758 145.803722,1.13784052 L144.18111,9.46160523 L143.484913,13.1378405 L141.837338,22.0404288 C141.773543,22.3764288 141.996825,22.6559582 142.332442,22.6559582 L144.84541,22.6559582 C145.183801,22.6559582 145.512484,22.3764288 145.576279,22.0404288 L147.189183,13.3383111 L152.797594,13.3383111 C155.797345,13.3383111 158.479509,10.8578405 159.042569,7.80701699 L159.396215,6.09031111 C159.960662,3.03948758 157.879004,0.523722876 154.879252,0.523722876 M155.693332,6.01831111 L155.26757,7.87901699 C155.092827,8.88419346 153.857146,9.71007582 152.86971,9.71007582 L148.487272,9.71007582 C148.148881,9.71007582 147.925599,9.4347817 147.992167,9.0987817 L148.870042,4.76466405 C148.936611,4.42725229 149.263907,4.15054641 149.602297,4.15054641 L154.492322,4.15054641 C155.479757,4.15054641 155.868075,5.01313464 155.693332,6.01831111" id="Fill-18" fill="#FFFFFF"></path>
                        </g>
                    </g>
                </g>
            </g>
        </g>
    </g>
</svg>